<svg width="20" height="24" viewBox="0 0 20 24" fill="none" xmlns="http://www.w3.org/2000/svg">
<path d="M13.1485 5.6499L14.2735 3.3984C14.3175 3.3103 14.3438 3.21439 14.3508 3.11614C14.3578 3.01789 14.3453 2.91922 14.3142 2.82578C14.283 2.73234 14.2338 2.64595 14.1692 2.57154C14.1047 2.49714 14.0261 2.43617 13.938 2.39213C13.8499 2.34808 13.754 2.32182 13.6558 2.31484C13.5575 2.30786 13.4588 2.3203 13.3654 2.35146C13.272 2.38261 13.1856 2.43186 13.1112 2.4964C13.0368 2.56094 12.9758 2.6395 12.9317 2.7276L11.6999 5.19285H8.30005L6.4543 1.5H12.1636C12.3625 1.5 12.5533 1.42098 12.6939 1.28033C12.8346 1.13968 12.9136 0.948912 12.9136 0.75C12.9136 0.551088 12.8346 0.360322 12.6939 0.21967C12.5533 0.0790176 12.3625 0 12.1636 0L5.24065 0C5.11282 2.99082e-05 4.98712 0.0327302 4.87549 0.0949964C4.76385 0.157263 4.66998 0.247028 4.60279 0.355771C4.5356 0.464515 4.49732 0.588626 4.49158 0.716324C4.48584 0.844022 4.51283 0.971067 4.57 1.0854L6.8515 5.65005C5.01718 6.86396 3.49487 8.4932 2.40809 10.4056C1.3213 12.318 0.700652 14.4596 0.596497 16.6567C0.596497 19.6084 3.1 24 10 24C16.9 24 19.4035 19.6084 19.4035 16.6567C19.2993 14.4596 18.6787 12.3179 17.5919 10.4055C16.5051 8.49312 14.9828 6.86385 13.1485 5.6499ZM10 22.5C4.20145 22.5 2.0965 19.005 2.0965 16.6567C2.0965 11.1694 7.0594 6.69285 8.2693 6.69285H11.7307C12.9406 6.69285 17.9035 11.1694 17.9035 16.6567C17.9035 19.005 15.7985 22.5 10 22.5Z" fill="#9CA3AF"/>
<path d="M10.75 14.087V11.8753C10.9895 11.9474 11.2134 12.0637 11.41 12.2183C11.4866 12.2803 11.5746 12.3267 11.6691 12.3547C11.7635 12.3827 11.8626 12.3919 11.9606 12.3816C12.0586 12.3714 12.1537 12.3419 12.2403 12.2949C12.3269 12.2479 12.4034 12.1843 12.4655 12.1078C12.5275 12.0312 12.5739 11.9432 12.6019 11.8487C12.63 11.7542 12.6391 11.6552 12.6288 11.5572C12.6186 11.4591 12.5891 11.3641 12.5421 11.2775C12.4951 11.1909 12.4316 11.1143 12.355 11.0523C11.8871 10.6774 11.3319 10.4271 10.7412 10.3248C10.7303 10.1317 10.6447 9.95049 10.5025 9.81942C10.3603 9.68834 10.1727 9.61773 9.97943 9.62253C9.78612 9.62732 9.60226 9.70715 9.46676 9.84511C9.33127 9.98307 9.25477 10.1683 9.25345 10.3617C8.63344 10.4338 8.05764 10.7187 7.62427 11.1679C7.19089 11.6171 6.92679 12.2028 6.877 12.825C6.877 14.2635 7.99825 14.6634 9.08305 15.0516C9.13525 15.07 9.19585 15.0936 9.25 15.1131V17.6082C8.76229 17.5715 8.29223 17.4099 7.885 17.139C7.80613 17.0799 7.71639 17.0369 7.62091 17.0125C7.52543 16.9881 7.42607 16.9827 7.32851 16.9967C7.23096 17.0107 7.13711 17.0438 7.05233 17.094C6.96755 17.1443 6.8935 17.2107 6.8344 17.2896C6.77531 17.3685 6.73233 17.4582 6.70791 17.5537C6.6835 17.6492 6.67813 17.7485 6.69212 17.8461C6.7061 17.9436 6.73917 18.0375 6.78942 18.1223C6.83967 18.2071 6.90613 18.2811 6.985 18.3402C7.65952 18.8017 8.44873 19.0671 9.265 19.1071C9.28214 19.294 9.36963 19.4673 9.50976 19.5921C9.64989 19.7168 9.8322 19.7837 10.0198 19.779C10.2073 19.7744 10.3861 19.6987 10.5199 19.5672C10.6538 19.4357 10.7326 19.2583 10.7406 19.0708C12.9502 18.7708 13.3134 17.5049 13.3134 16.7112C13.315 15.3408 12.085 14.648 10.75 14.087ZM8.377 12.825C8.377 12.4511 8.74525 12.1219 9.25 11.9328V13.515C8.41795 13.2015 8.377 13.1001 8.377 12.825ZM10.75 17.5443V15.7368C11.6545 16.1849 11.815 16.4718 11.815 16.7109C11.815 17.1414 11.4435 17.415 10.75 17.5443Z" fill="#9CA3AF"/>
</svg>
